<svg xmlns="http://www.w3.org/2000/svg" viewBox="0 0 1024 1024" role="img" aria-label="QuickCalc app icon">
  <defs>
    <linearGradient id="background" x1="128" y1="96" x2="896" y2="928" gradientUnits="userSpaceOnUse">
      <stop stop-color="#7166FF"/>
      <stop offset="1" stop-color="#3B2FB8"/>
    </linearGradient>
    <filter id="shadow" x="-20%" y="-20%" width="140%" height="140%">
      <feDropShadow dx="0" dy="28" stdDeviation="30" flood-color="#1C166A" flood-opacity="0.35"/>
    </filter>
  </defs>

  <rect x="56" y="56" width="912" height="912" rx="224" fill="url(#background)"/>

  <g filter="url(#shadow)">
    <path d="M282 260h460c40 0 72 32 72 72v360c0 40-32 72-72 72H282c-40 0-72-32-72-72V332c0-40 32-72 72-72Z" fill="#FCFCFF"/>
    <path d="M282 260h460c40 0 72 32 72 72v82H210v-82c0-40 32-72 72-72Z" fill="#ECEAFF"/>
    <circle cx="282" cy="337" r="18" fill="#7166FF"/>
    <circle cx="340" cy="337" r="18" fill="#A7A0FF"/>

    <!-- Operators share a precise 2 × 2 grid: x=370/655, y=520/680. -->
    <g fill="none" stroke="#3B2FB8" stroke-width="34" stroke-linecap="round">
      <path d="M316 520h108M370 466v108"/>
      <path d="M596 486h118M596 554h118"/>
      <path d="M327 637l86 86M413 637l-86 86"/>
    </g>
    <g fill="none" stroke="#7166FF" stroke-width="34" stroke-linecap="round">
      <path d="M601 680h108M655 626v108"/>
    </g>
  </g>
</svg>
